<?xml version="1.0" standalone="no"?>
<!DOCTYPE svg PUBLIC "-//W3C//DTD SVG 20010904//EN"
 "http://www.w3.org/TR/2001/REC-SVG-20010904/DTD/svg10.dtd">
<svg version="1.0" xmlns="http://www.w3.org/2000/svg"
 width="370.000000pt" height="370.000000pt" viewBox="0 0 370.000000 370.000000"
 preserveAspectRatio="xMidYMid meet">

<g transform="translate(0.000000,370.000000) scale(0.100000,-0.100000)"
fill="#000000" stroke="none">
<path d="M1670 3694 c-520 -66 -949 -300 -1260 -685 -193 -240 -323 -525 -382
-836 -32 -171 -32 -475 0 -648 43 -226 148 -494 262 -670 288 -441 718 -728
1240 -828 166 -31 474 -31 640 0 389 74 714 244 986 517 273 272 443 597 517
986 31 166 31 474 0 640 -99 521 -387 952 -828 1240 -175 113 -445 220 -665
261 -112 20 -418 34 -510 23z m316 -735 c32 -5 102 -31 154 -56 80 -38 108
-59 177 -128 137 -139 200 -301 190 -495 -13 -284 -203 -523 -482 -606 -83
-25 -267 -25 -350 0 -279 83 -469 322 -482 606 -10 194 53 356 190 495 69 69
98 90 177 128 52 25 118 50 145 55 70 14 210 14 281 1z m85 -1525 c239 -45
456 -154 634 -316 106 -97 231 -270 286 -393 l21 -47 -29 -30 c-45 -49 -201
-166 -288 -217 -163 -97 -356 -170 -550 -208 -127 -25 -463 -25 -590 0 -194
38 -387 111 -550 208 -87 51 -243 168 -288 217 l-29 30 21 47 c55 123 180 296
286 393 173 158 378 263 613 312 114 24 346 26 463 4z"/>
</g>
</svg>
